# xmcd
# 
# Track frame offsets:
#     150
#     21744
#     39010
#     60877
#     77542
#     95555
#     115632
#     238965
# 
# Disc length: 3497
# 
# Revision: 0
# Processed by: cddbd v1.5.2PL0 Copyright (c) Steve Scherf et al.
# Submitted via: fre:ac v1.1beta1pre3
# 
DISCID=580da708
DTITLE=Darkthrone - The Roots Of Evilness - Live
DYEAR=1997
DGENRE=Black Metal
TTITLE0=Cromlech
TTITLE1=Sunrise Over Locus Mortis
TTITLE2=Soulside Journey
TTITLE3=Accumulation Of Generalization
TTITLE4=Sempiternal Past - Prescence View Sepulchrality
TTITLE5=Iconoclasm Sweeps Cappadocia
TTITLE6=Neptune Towers
TTITLE7=Dismissal
EXTD=
EXTT0=
EXTT1=
EXTT2=
EXTT3=
EXTT4=
EXTT5=
EXTT6=
EXTT7=
PLAYORDER=
